<svg width="14" height="12" viewBox="0 0 14 12" fill="none" xmlns="http://www.w3.org/2000/svg">
<path fill-rule="evenodd" clip-rule="evenodd" d="M1.45739 5.65472C1.64805 5.6865 1.77686 5.86683 1.74508 6.0575L1.16353 9.54683C1.10778 9.88132 1.217 10.2221 1.45678 10.4619L1.58728 10.5924C1.7842 10.7893 2.05127 10.9 2.32974 10.9H11.6699C11.9484 10.9 12.2155 10.7893 12.4124 10.5924L12.5429 10.4619C12.7827 10.2221 12.8919 9.88132 12.8362 9.54683L12.2546 6.0575C12.2228 5.86683 12.3516 5.6865 12.5423 5.65472C12.733 5.62294 12.9133 5.75175 12.9451 5.94242L13.5266 9.43176C13.6196 9.98923 13.4375 10.5573 13.0379 10.9569L12.9074 11.0874C12.5792 11.4156 12.1341 11.6 11.6699 11.6H2.32974C1.86562 11.6 1.4205 11.4156 1.09231 11.0874L0.961804 10.9569C0.562172 10.5573 0.380139 9.98923 0.473051 9.43176L1.05461 5.94242C1.08639 5.75175 1.26672 5.62294 1.45739 5.65472Z" fill="white"/>
<path fill-rule="evenodd" clip-rule="evenodd" d="M4.64083 5.23346C4.77086 5.09043 4.99221 5.07989 5.13524 5.20992L7.02394 6.92692L8.91265 5.20992C9.05568 5.07989 9.27703 5.09043 9.40706 5.23346C9.53709 5.37649 9.52655 5.59785 9.38352 5.72788L7.25938 7.65891C7.12588 7.78027 6.92201 7.78027 6.78851 7.65891L4.66437 5.72788C4.52134 5.59785 4.5108 5.37649 4.64083 5.23346Z" fill="white"/>
<path fill-rule="evenodd" clip-rule="evenodd" d="M7.02432 0.0500488C6.83102 0.0500488 6.67432 0.206749 6.67432 0.400049L6.67432 7.20694C6.67432 7.40024 6.83102 7.55694 7.02432 7.55694C7.21762 7.55694 7.37432 7.40024 7.37432 7.20694L7.37432 0.400049C7.37432 0.206749 7.21762 0.0500489 7.02432 0.0500488Z" fill="white"/>
</svg>
