<svg width="32" height="33" viewBox="0 0 32 33" fill="none" xmlns="http://www.w3.org/2000/svg">
<path fill-rule="evenodd" clip-rule="evenodd" d="M31.4766 16.4263C31.4766 16.8225 31.1152 17.1436 30.6695 17.1436L1.61362 17.1436C1.16787 17.1436 0.806511 16.8225 0.806511 16.4263C0.806511 16.0301 1.16787 15.709 1.61362 15.709L30.6695 15.709C31.1152 15.709 31.4766 16.0301 31.4766 16.4263Z" fill="white"/>
<path fill-rule="evenodd" clip-rule="evenodd" d="M15.7928 32.739C15.4119 32.739 15.1031 32.3632 15.1031 31.8995L15.1031 1.67829C15.1031 1.21465 15.4119 0.838804 15.7928 0.838804C16.1737 0.838804 16.4824 1.21465 16.4824 1.67829L16.4824 31.8995C16.4824 32.3632 16.1737 32.739 15.7928 32.739Z" fill="white"/>
</svg>
