<svg width="20" height="20" viewBox="0 0 20 20" fill="none" xmlns="http://www.w3.org/2000/svg">
<path fill-rule="evenodd" clip-rule="evenodd" d="M8.5 2C8.5 1.17157 9.17157 0.5 10 0.5C10.8284 0.5 11.5 1.17157 11.5 2V3H10.5V2C10.5 1.72386 10.2761 1.5 10 1.5C9.72386 1.5 9.5 1.72386 9.5 2V3H8.5V2Z" fill="#BC363F"/>
<path fill-rule="evenodd" clip-rule="evenodd" d="M8.5 17C8.5 17.8284 9.17157 18.5 10 18.5C10.8284 18.5 11.5 17.8284 11.5 17H12.5C12.5 18.3807 11.3807 19.5 10 19.5C8.61929 19.5 7.5 18.3807 7.5 17H8.5Z" fill="#BC363F"/>
<path fill-rule="evenodd" clip-rule="evenodd" d="M5.55238 4.23617C6.50049 3.13521 7.9667 2.5 10 2.5C12.0512 2.5 13.5136 3.21659 14.4533 4.34705C15.3801 5.46199 15.75 6.92078 15.75 8.33333C15.75 8.73726 15.7188 9.21159 15.6872 9.69146L15.6864 9.70359C15.6211 10.6938 15.5572 11.7102 15.6894 12.4789C15.7552 12.8612 15.8608 13.1222 15.9899 13.28C16.0997 13.4143 16.2455 13.5 16.5 13.5C17.6046 13.5 18.5 14.3954 18.5 15.5C18.5 16.6046 17.6046 17.5 16.5 17.5H3.5C2.39543 17.5 1.5 16.6046 1.5 15.5C1.5 14.3954 2.39543 13.5 3.5 13.5C3.66992 13.5 3.76933 13.4441 3.85779 13.3305C3.96688 13.1905 4.06672 12.9465 4.13825 12.563C4.28158 11.7947 4.27196 10.7143 4.25812 9.45315L4.25811 9.45186C4.25412 9.08838 4.25 8.71291 4.25 8.33333C4.25 6.7907 4.61585 5.32367 5.55238 4.23617ZM6.31012 4.88872C5.58414 5.73173 5.25 6.93137 5.25 8.33333C5.25 8.70698 5.25406 9.07745 5.25806 9.44218L5.25856 9.48762C5.27181 10.693 5.28475 11.8702 5.12129 12.7464C5.0384 13.1908 4.90037 13.6194 4.64668 13.9451C4.37236 14.2972 3.9841 14.5 3.5 14.5C2.94772 14.5 2.5 14.9477 2.5 15.5C2.5 16.0523 2.94772 16.5 3.5 16.5H16.5C17.0523 16.5 17.5 16.0523 17.5 15.5C17.5 14.9477 17.0523 14.5 16.5 14.5C15.9557 14.5 15.522 14.2874 15.2159 13.9133C14.9292 13.5628 14.7825 13.1057 14.7039 12.6484C14.5493 11.7501 14.6238 10.6202 14.686 9.67581L14.6885 9.63787C14.7211 9.1437 14.75 8.70087 14.75 8.33333C14.75 7.07922 14.4199 5.87134 13.6842 4.98629C12.9614 4.11675 11.7988 3.5 10 3.5C8.1833 3.5 7.02451 4.05916 6.31012 4.88872Z" fill="#153559"/>
</svg>
