<svg width="19" height="18" viewBox="0 0 19 18" fill="none" xmlns="http://www.w3.org/2000/svg">
<path fill-rule="evenodd" clip-rule="evenodd" d="M2.37434 8.55612C2.61949 8.59698 2.78509 8.82883 2.74424 9.07398L1.99652 13.5603C1.92485 13.9903 2.06527 14.4285 2.37356 14.7368L2.54135 14.9046C2.79452 15.1578 3.1379 15.3 3.49594 15.3H15.5048C15.8628 15.3 16.2062 15.1578 16.4594 14.9046L16.6272 14.7368C16.9354 14.4285 17.0759 13.9903 17.0042 13.5603L16.2565 9.07398C16.2156 8.82883 16.3812 8.59698 16.6264 8.55612C16.8715 8.51526 17.1034 8.68087 17.1442 8.92602L17.892 13.4123C18.0114 14.1291 17.7774 14.8594 17.2636 15.3732L17.0958 15.541C16.6738 15.9629 16.1015 16.2 15.5048 16.2H3.49594C2.89921 16.2 2.32691 15.9629 1.90495 15.541L1.73716 15.3732C1.22335 14.8594 0.989308 14.1291 1.10877 13.4123L1.85648 8.92602C1.89734 8.68087 2.12919 8.51526 2.37434 8.55612Z" fill="#153559"/>
<path fill-rule="evenodd" clip-rule="evenodd" d="M6.46859 8.01449C6.63577 7.83059 6.92037 7.81704 7.10427 7.98422L9.5326 10.1918L11.9609 7.98422C12.1448 7.81704 12.4294 7.83059 12.5966 8.01449C12.7638 8.19838 12.7502 8.48299 12.5663 8.65016L9.8353 11.1329C9.66366 11.289 9.40154 11.289 9.2299 11.1329L6.49886 8.65016C6.31497 8.48299 6.30141 8.19838 6.46859 8.01449Z" fill="#153559"/>
<path fill-rule="evenodd" clip-rule="evenodd" d="M9.53203 1.34998C9.2835 1.34998 9.08203 1.55145 9.08203 1.79998L9.08203 10.5517C9.08203 10.8002 9.2835 11.0017 9.53203 11.0017C9.78056 11.0017 9.98203 10.8002 9.98203 10.5517L9.98203 1.79998C9.98203 1.55145 9.78056 1.34998 9.53203 1.34998Z" fill="#153559"/>
</svg>
