<svg width="36" height="36" viewBox="0 0 36 36" fill="none" xmlns="http://www.w3.org/2000/svg">
<path fill-rule="evenodd" clip-rule="evenodd" d="M21.7563 16.9218C21.4146 17.2629 21.4146 17.816 21.7563 18.1571L33.1313 29.5117C33.473 29.8528 34.027 29.8528 34.3687 29.5117C34.7104 29.1706 34.7104 28.6176 34.3687 28.2765L22.9937 16.9218C22.652 16.5807 22.098 16.5807 21.7563 16.9218Z" fill="#153559"/>
<path fill-rule="evenodd" clip-rule="evenodd" d="M15.9479 18.1995L2.82289 29.5541L1.67676 28.234L14.8018 16.8794L15.9479 18.1995Z" fill="#153559"/>
<path fill-rule="evenodd" clip-rule="evenodd" d="M1.54563 7.41396C1.8323 7.02562 2.38006 6.94277 2.76911 7.22892L18.2962 18.6495C18.619 18.8868 19.062 18.8749 19.3715 18.6205L33.1938 7.25785C33.5668 6.9512 34.1183 7.00447 34.4255 7.37684C34.7327 7.7492 34.6793 8.29966 34.3063 8.60631L20.484 19.969C19.5556 20.7322 18.2264 20.7679 17.2581 20.0558L1.73101 8.63524C1.34197 8.3491 1.25897 7.80231 1.54563 7.41396Z" fill="#BC363F"/>
<path fill-rule="evenodd" clip-rule="evenodd" d="M32 7.93192H4C3.0335 7.93192 2.25 8.71402 2.25 9.67879V27.1474C2.25 28.1122 3.0335 28.8943 4 28.8943H32C32.9665 28.8943 33.75 28.1122 33.75 27.1474V9.67879C33.75 8.71402 32.9665 7.93192 32 7.93192ZM4 6.18506C2.067 6.18506 0.5 7.74925 0.5 9.67879V27.1474C0.5 29.077 2.067 30.6412 4 30.6412H32C33.933 30.6412 35.5 29.077 35.5 27.1474V9.67879C35.5 7.74925 33.933 6.18506 32 6.18506H4Z" fill="#153559"/>
</svg>
