<svg width="16" height="16" viewBox="0 0 16 16" fill="none" xmlns="http://www.w3.org/2000/svg">
<path fill-rule="evenodd" clip-rule="evenodd" d="M8 15.2C11.9765 15.2 15.2 11.9765 15.2 8C15.2 4.02355 11.9765 0.8 8 0.8C4.02355 0.8 0.8 4.02355 0.8 8C0.8 11.9765 4.02355 15.2 8 15.2ZM8 16C12.4183 16 16 12.4183 16 8C16 3.58172 12.4183 0 8 0C3.58172 0 0 3.58172 0 8C0 12.4183 3.58172 16 8 16Z" fill="#153559"/>
<path fill-rule="evenodd" clip-rule="evenodd" d="M7.99961 6C8.22052 6 8.39961 6.17909 8.39961 6.4L8.39961 12C8.39961 12.2209 8.22052 12.4 7.99961 12.4C7.7787 12.4 7.59961 12.2209 7.59961 12L7.59961 6.4C7.59961 6.17909 7.7787 6 7.99961 6Z" fill="#BC363F"/>
<path fill-rule="evenodd" clip-rule="evenodd" d="M7.99961 3.59998C8.22052 3.59998 8.39961 3.77906 8.39961 3.99998L8.39961 4.79998C8.39961 5.02089 8.22052 5.19998 7.99961 5.19998C7.7787 5.19998 7.59961 5.02089 7.59961 4.79998L7.59961 3.99998C7.59961 3.77906 7.7787 3.59998 7.99961 3.59998Z" fill="#BC363F"/>
</svg>
