<svg width="19" height="26" viewBox="0 0 19 26" fill="none" xmlns="http://www.w3.org/2000/svg">
<g clip-path="url(#clip0_126_4529)">
<path d="M13.2153 0.953125V6.00499L17.9984 5.96002L13.2153 0.953125Z" fill="#CECCCC"/>
<path d="M13.6688 25.3569H5.38728C2.75974 25.3569 0.62915 23.1391 0.62915 20.4029V5.6028C0.62915 2.86075 2.76431 0.637695 5.39795 0.637695H13.0062L13.0275 3.64956C13.0372 5.01609 14.0936 6.12391 15.4061 6.14401L18.3771 6.18898V20.4542C18.3771 23.1619 16.2689 25.3569 13.6683 25.3569H13.6688Z" fill="white"/>
<path d="M13.6688 24.7225H5.74045C5.08089 24.7225 4.55091 24.6865 3.91727 24.4463C2.90203 24.0607 2.05803 23.2152 1.58394 22.1397C1.36748 21.6477 1.24451 21.0139 1.23943 20.4409C1.23892 20.3743 1.23943 20.3071 1.23943 20.2404V8.79977C1.23943 7.76337 1.23841 6.7275 1.23943 5.69109C1.24095 3.67225 2.50671 1.8846 4.41423 1.3947C4.91423 1.26615 5.42185 1.27302 5.97571 1.27302H13.0062L12.3964 0.638168C12.4005 1.19261 12.4046 1.74705 12.4081 2.30149C12.4127 2.92206 12.3705 3.56962 12.4676 4.18437C12.6556 5.3779 13.5656 6.38785 14.6901 6.68147C15.2664 6.83225 15.9015 6.78675 16.491 6.79574C17.1195 6.80527 17.7486 6.81479 18.3771 6.82431L17.7674 6.18946V13.1374C17.7674 15.571 17.7801 18.0047 17.7674 20.4383C17.7618 21.4657 17.4127 22.4878 16.7709 23.2459C15.9645 24.1987 14.8619 24.713 13.6683 24.7225C12.8837 24.7283 12.8822 25.9986 13.6683 25.9922C16.1571 25.9732 18.4203 24.1077 18.8842 21.5323C19.0489 20.6181 18.9869 19.6526 18.9869 18.7273V8.9442C18.9869 8.04112 19.0169 7.13222 18.9869 6.22966C18.9869 6.21644 18.9869 6.20321 18.9869 6.18946C18.9869 5.8424 18.7074 5.55936 18.3771 5.5546C17.3873 5.53979 16.3969 5.53714 15.4071 5.50963C14.5773 5.48635 13.8665 4.89223 13.6759 4.02354C13.5834 3.60083 13.6322 2.96174 13.6287 2.45703C13.6246 1.85074 13.62 1.24446 13.616 0.637639C13.6134 0.294288 13.3385 0.00278275 13.0062 0.00278275H9.35427C8.04075 0.0033118 6.72723 -0.00409485 5.41372 0.0033118C2.86545 0.0175961 0.5438 1.94386 0.109857 4.59332C-0.0512202 5.57576 0.0194098 6.61481 0.0194098 7.60677C0.0194098 9.34416 0.0194098 11.081 0.0194098 12.8184V18.1306C0.0194098 19.0173 -0.0339438 19.9246 0.0351619 20.8097C0.258231 23.6676 2.54888 25.9456 5.31565 25.9917C6.48333 26.0112 7.65305 25.9922 8.82124 25.9922H13.6688C14.4534 25.9922 14.4549 24.7225 13.6688 24.7225Z" fill="#16243E"/>
<path d="M12.6017 1.1146C14.1479 2.71285 15.6941 4.3111 17.2409 5.90988C17.4629 6.13949 17.6855 6.36963 17.9076 6.59923C18.465 7.17536 19.3278 6.2781 18.7698 5.70144C17.2236 4.10319 15.6774 2.50494 14.1306 0.90616C13.9086 0.676554 13.686 0.446419 13.464 0.216813C12.9065 -0.359319 12.0437 0.537944 12.6017 1.1146Z" fill="#16243E"/>
<path d="M4.74194 18.6638V17.8623H14.2643V18.6638H4.74194Z" fill="#CC132C"/>
<path d="M14.2674 14.1426V14.9404H4.74805V14.1426H14.2674Z" fill="#CC132C"/>
<path d="M14.2627 10.7051V11.5029H4.74341V10.7051H14.2627Z" fill="#CC132C"/>
</g>
<defs>
<clipPath id="clip0_126_4529">
<rect width="19" height="26" fill="white"/>
</clipPath>
</defs>
</svg>
