<svg width="12" height="12" viewBox="0 0 12 12" fill="none" xmlns="http://www.w3.org/2000/svg">
<path fill-rule="evenodd" clip-rule="evenodd" d="M4.20156 0.6V1.8H7.80156V0.6H4.20156ZM3.60156 1.8V0.6C3.60156 0.268629 3.87019 0 4.20156 0H7.80156C8.13293 0 8.40156 0.268629 8.40156 0.6V1.8C8.40156 2.13137 8.13293 2.4 7.80156 2.4H4.20156C3.87019 2.4 3.60156 2.13137 3.60156 1.8Z" fill="#3C3939"/>
<path fill-rule="evenodd" clip-rule="evenodd" d="M1.87547 2.40078L2.93429 11.4008L9.06719 11.4008L10.126 2.40078L1.87547 2.40078ZM1.27958 2.47089L2.3384 11.4709C2.37395 11.7731 2.63004 12.0008 2.93429 12.0008H9.06719C9.37145 12.0008 9.62753 11.7731 9.66308 11.4709L10.7219 2.47089C10.7639 2.11419 10.4852 1.80078 10.126 1.80078H1.87547C1.51631 1.80078 1.23762 2.11419 1.27958 2.47089Z" fill="#3C3939"/>
<path fill-rule="evenodd" clip-rule="evenodd" d="M4.03679 4.86077C4.20166 4.84429 4.34867 4.96457 4.36515 5.12943L4.76158 9.09372C4.77807 9.25858 4.65779 9.4056 4.49292 9.42208C4.32806 9.43857 4.18105 9.31829 4.16456 9.15342L3.76813 5.18914C3.75165 5.02427 3.87193 4.87726 4.03679 4.86077Z" fill="#3C3939"/>
<path fill-rule="evenodd" clip-rule="evenodd" d="M6.00117 5.09961C6.16686 5.09961 6.30117 5.23392 6.30117 5.39961V8.99961C6.30117 9.1653 6.16686 9.29961 6.00117 9.29961C5.83549 9.29961 5.70117 9.1653 5.70117 8.99961V5.39961C5.70117 5.23392 5.83549 5.09961 6.00117 5.09961Z" fill="#3C3939"/>
<path fill-rule="evenodd" clip-rule="evenodd" d="M8.06023 4.85993C8.22509 4.87642 8.34538 5.02343 8.32889 5.18829L7.93246 9.15258C7.91598 9.31744 7.76896 9.43772 7.6041 9.42124C7.43924 9.40475 7.31895 9.25774 7.33544 9.09287L7.73187 5.12859C7.74835 4.96373 7.89537 4.84344 8.06023 4.85993Z" fill="#3C3939"/>
</svg>
