<svg width="36" height="36" viewBox="0 0 36 36" fill="none" xmlns="http://www.w3.org/2000/svg">
<path fill-rule="evenodd" clip-rule="evenodd" d="M9.86901 6.80264L9.87177 6.79995L9.89433 6.77828C9.91589 6.75778 9.9504 6.72549 9.99743 6.68308C10.0915 6.59824 10.2355 6.47316 10.4258 6.32117C10.807 6.01676 11.3711 5.60697 12.0906 5.19652C13.5334 4.37353 15.571 3.56474 18.0002 3.56474C20.4294 3.56474 22.4671 4.37353 23.9099 5.19652C24.6295 5.60698 25.1935 6.01677 25.5747 6.32117C25.7651 6.47316 25.909 6.59824 26.0031 6.68309C26.0501 6.72549 26.0846 6.75778 26.1062 6.77828L26.1288 6.79996L26.1315 6.80264C26.1317 6.80278 26.1318 6.80292 26.1319 6.80305C26.132 6.8031 26.132 6.80313 26.1321 6.80317C26.1321 6.80325 26.1322 6.80332 26.1323 6.80339C26.1324 6.80349 26.1325 6.80359 26.1326 6.80369C26.151 6.82198 26.1701 6.83944 26.1901 6.85602C27.6787 8.09431 29.2578 10.9218 28.5973 15.3587C27.9535 19.6832 25.1697 25.5637 18.0151 32.8773C15.0421 29.6906 11.2215 25.0283 8.96967 20.2674C7.76458 17.7196 7.03916 15.2061 7.08721 12.9123C7.13457 10.6512 7.9315 8.57663 9.84154 6.82889C9.85074 6.82047 9.85976 6.81185 9.86859 6.80305M27.3369 5.53623C29.3371 7.21768 31.0645 10.6702 30.3283 15.6155C29.5907 20.5695 26.3942 26.9913 18.619 34.7525C18.4524 34.9188 18.2257 35.011 17.9901 35.0082C17.7546 35.0055 17.53 34.9081 17.3674 34.7379C14.2845 31.5141 9.91957 26.3672 7.38718 21.0132C6.12039 18.335 5.28174 15.5424 5.33759 12.8758C5.39403 10.1812 6.36578 7.64512 8.64744 5.5518L8.6492 5.55007L8.68742 5.51331C8.71969 5.48264 8.7655 5.43987 8.82442 5.38674C8.94223 5.28052 9.11275 5.13265 9.33257 4.9571C9.77169 4.60644 10.4107 4.14279 11.2224 3.67982C12.8421 2.75594 15.1794 1.81787 18.0002 1.81787C20.821 1.81787 23.1584 2.75594 24.7781 3.67982C25.5898 4.14279 26.2288 4.60643 26.6679 4.9571C26.8878 5.13265 27.0583 5.28052 27.1761 5.38673C27.235 5.43986 27.2808 5.48263 27.3131 5.51331L27.3369 5.53623Z" fill="#153559"/>
<path fill-rule="evenodd" clip-rule="evenodd" d="M18 16.666C19.933 16.666 21.5 15.1018 21.5 13.1722C21.5 11.2427 19.933 9.6785 18 9.6785C16.067 9.6785 14.5 11.2427 14.5 13.1722C14.5 15.1018 16.067 16.666 18 16.666ZM18 18.4128C20.8995 18.4128 23.25 16.0665 23.25 13.1722C23.25 10.2779 20.8995 7.93164 18 7.93164C15.1005 7.93164 12.75 10.2779 12.75 13.1722C12.75 16.0665 15.1005 18.4128 18 18.4128Z" fill="#BC363F"/>
</svg>
