<svg width="36" height="36" viewBox="0 0 36 36" fill="none" xmlns="http://www.w3.org/2000/svg">
<path fill-rule="evenodd" clip-rule="evenodd" d="M8.89852 8.72696C8.07044 7.78223 6.93464 7.70406 6.32597 8.30825C4.94881 9.67527 3.82066 11.8556 4.14522 14.8297C4.47252 17.8287 6.29097 21.7529 11.0765 26.5299C16.095 31.5394 19.8825 33.2149 22.5723 33.3231C25.1979 33.4286 26.9741 32.0432 28.042 30.3692C28.4671 29.7029 28.3049 28.7291 27.5596 27.9852L24.9982 25.4283C24.2165 24.6481 22.9493 24.6481 22.1676 25.4283C21.0388 26.5551 19.2448 26.8947 17.8158 25.9685C15.5975 24.5306 12.62 22.1013 10.6758 18.9623C9.76341 17.4893 10.1898 15.6986 11.3086 14.5819C12.1255 13.7664 12.1692 12.4584 11.4084 11.5904L8.89852 8.72696ZM5.09199 7.06958C6.68456 5.48873 8.99947 6.18928 10.2156 7.57668L12.7255 10.4401C14.0929 12.0002 14.0144 14.3514 12.546 15.8171C11.8897 16.4722 11.7565 17.3854 12.1642 18.0437C13.9217 20.8811 16.6678 23.1416 18.7689 24.5034C19.4167 24.9233 20.308 24.8142 20.9302 24.1931C22.3952 22.7307 24.7706 22.7307 26.2356 24.1931L28.797 26.7499C29.9266 27.8774 30.5172 29.7413 29.5181 31.3075C28.206 33.3644 25.9019 35.2052 22.5018 35.0685C19.1659 34.9344 14.9822 32.8991 9.83907 27.7651C4.89129 22.8262 2.79131 18.5538 2.40552 15.0188C2.017 11.4589 3.3811 8.76789 5.09199 7.06958Z" fill="#153559"/>
<path fill-rule="evenodd" clip-rule="evenodd" d="M17.458 9.67861C17.458 9.19622 17.8498 8.80518 18.333 8.80518C19.9314 8.80518 22.3094 9.27664 24.313 10.7167C26.3612 12.1887 27.958 14.6345 27.958 18.4129C27.958 18.8953 27.5663 19.2864 27.083 19.2864C26.5998 19.2864 26.208 18.8953 26.208 18.4129C26.208 15.2039 24.8881 13.2825 23.2905 12.1343C21.6483 10.954 19.6513 10.552 18.333 10.552C17.8498 10.552 17.458 10.161 17.458 9.67861Z" fill="#BC363F"/>
<path fill-rule="evenodd" clip-rule="evenodd" d="M17.458 3.56484C17.458 3.08246 17.8498 2.69141 18.333 2.69141C19.8494 2.69141 23.7541 2.91338 27.3072 4.99516C30.9322 7.11909 34.083 11.1197 34.083 18.4132C34.083 18.8956 33.6913 19.2866 33.208 19.2866C32.7248 19.2866 32.333 18.8956 32.333 18.4132C32.333 11.7318 29.5046 8.30819 26.4213 6.50168C23.2661 4.65301 19.7332 4.43827 18.333 4.43827C17.8498 4.43827 17.458 4.04722 17.458 3.56484Z" fill="#BC363F"/>
</svg>
