<svg width="18" height="18" viewBox="0 0 18 18" fill="none" xmlns="http://www.w3.org/2000/svg">
<path fill-rule="evenodd" clip-rule="evenodd" d="M0.450195 3.59998C0.450195 2.35756 1.45663 1.34998 2.6995 1.34998H6.42519C6.67372 1.34998 6.87519 1.55145 6.87519 1.79998C6.87519 2.0485 6.67372 2.24998 6.42519 2.24998H2.6995C1.95414 2.24998 1.3502 2.85416 1.3502 3.59998V15.3C1.3502 16.0456 1.95461 16.65 2.7002 16.65H14.4002C15.1458 16.65 15.7502 16.0456 15.7502 15.3V11.25C15.7502 11.0014 15.9517 10.8 16.2002 10.8C16.4487 10.8 16.6502 11.0014 16.6502 11.25V15.3C16.6502 16.5426 15.6428 17.55 14.4002 17.55H2.7002C1.45755 17.55 0.450195 16.5426 0.450195 15.3V3.59998Z" fill="#153559"/>
<path fill-rule="evenodd" clip-rule="evenodd" d="M6.40935 8.56347C6.65045 8.62375 6.79705 8.86807 6.73677 9.10917L6.01867 11.9816L8.89106 11.2635C9.13217 11.2032 9.37649 11.3498 9.43677 11.5909C9.49705 11.832 9.35045 12.0763 9.10935 12.1366L5.50935 13.0366C5.356 13.0749 5.19378 13.03 5.08201 12.9182C4.97024 12.8065 4.9253 12.6442 4.96364 12.4909L5.86364 8.89089C5.92392 8.64978 6.16824 8.50319 6.40935 8.56347Z" fill="#153559"/>
<path fill-rule="evenodd" clip-rule="evenodd" d="M16.1462 1.59094C15.619 1.06373 14.7642 1.06373 14.237 1.59094L6.93601 8.89195L9.10761 11.0636L16.4086 3.76254C16.9358 3.23533 16.9358 2.38056 16.4086 1.85335L16.1462 1.59094ZM13.6006 0.954541C14.4793 0.0758613 15.9039 0.0758634 16.7826 0.954543L17.045 1.21696C17.9237 2.09564 17.9237 3.52026 17.045 4.39894L9.42581 12.0181C9.25007 12.1939 8.96515 12.1939 8.78941 12.0181L5.98141 9.21015C5.80568 9.03441 5.80568 8.74949 5.98141 8.57375L13.6006 0.954541Z" fill="#153559"/>
<path fill-rule="evenodd" clip-rule="evenodd" d="M13.1816 1.48178C13.3573 1.30604 13.6423 1.30604 13.818 1.48178L16.518 4.18178C16.6937 4.35751 16.6937 4.64244 16.518 4.81817C16.3423 4.99391 16.0573 4.99391 15.8816 4.81817L13.1816 2.11817C13.0059 1.94244 13.0059 1.65751 13.1816 1.48178Z" fill="#153559"/>
</svg>
