<svg width="14" height="14" viewBox="0 0 14 14" fill="#fff" xmlns="http://www.w3.org/2000/svg">
<path fill-rule="evenodd" clip-rule="evenodd" d="M7.36562 1.13327C7.36562 0.930764 7.20146 0.766602 6.99896 0.766602C6.79645 0.766602 6.63229 0.930764 6.63229 1.13327V6.63327H1.13229C0.929788 6.63327 0.765625 6.79743 0.765625 6.99993C0.765625 7.20244 0.929788 7.3666 1.13229 7.3666H6.63229V12.8666C6.63229 13.0691 6.79645 13.2333 6.99896 13.2333C7.20146 13.2333 7.36562 13.0691 7.36562 12.8666V7.3666H12.8656C13.0681 7.3666 13.2323 7.20244 13.2323 6.99993C13.2323 6.79743 13.0681 6.63327 12.8656 6.63327H7.36562V1.13327Z" fill="#fff"/>
</svg>
