<svg width="20" height="20" viewBox="0 0 20 20" fill="none" xmlns="http://www.w3.org/2000/svg">
<path fill-rule="evenodd" clip-rule="evenodd" d="M10 20C15.5228 20 20 15.5228 20 10C20 4.47715 15.5228 0 10 0C4.47715 0 0 4.47715 0 10C0 15.5228 4.47715 20 10 20Z" fill="#77A6FE"/>
<path fill-rule="evenodd" clip-rule="evenodd" d="M10 8.5C10.2761 8.5 10.5 8.70987 10.5 8.96875L10.5 15.5313C10.5 15.7901 10.2761 16 10 16C9.72386 16 9.5 15.7901 9.5 15.5312L9.5 8.96875C9.5 8.70987 9.72386 8.5 10 8.5Z" fill="white" stroke="white" stroke-width="0.5" stroke-linecap="round"/>
<path fill-rule="evenodd" clip-rule="evenodd" d="M10 4.5C10.2761 4.5 10.5 4.72386 10.5 5L10.5 6C10.5 6.27614 10.2761 6.5 10 6.5C9.72386 6.5 9.5 6.27614 9.5 6L9.5 5C9.5 4.72386 9.72386 4.5 10 4.5Z" fill="white" stroke="white" stroke-width="0.5" stroke-linecap="round"/>
</svg>
