<svg width="18" height="18" viewBox="0 0 18 18" fill="none" xmlns="http://www.w3.org/2000/svg">
<path fill-rule="evenodd" clip-rule="evenodd" d="M1.87434 8.55612C2.11949 8.59698 2.28509 8.82883 2.24424 9.07398L1.49652 13.5603C1.42485 13.9903 1.56527 14.4285 1.87356 14.7368L2.04135 14.9046C2.29452 15.1578 2.6379 15.3 2.99594 15.3H15.0048C15.3628 15.3 15.7062 15.1578 15.9594 14.9046L16.1272 14.7368C16.4354 14.4285 16.5759 13.9903 16.5042 13.5603L15.7565 9.07398C15.7156 8.82883 15.8812 8.59698 16.1264 8.55612C16.3715 8.51526 16.6034 8.68087 16.6442 8.92602L17.392 13.4123C17.5114 14.1291 17.2774 14.8594 16.7636 15.3732L16.5958 15.541C16.1738 15.9629 15.6015 16.2 15.0048 16.2H2.99594C2.39921 16.2 1.82691 15.9629 1.40495 15.541L1.23716 15.3732C0.723351 14.8594 0.489308 14.1291 0.608767 13.4123L1.35648 8.92602C1.39734 8.68087 1.62919 8.51526 1.87434 8.55612Z" fill="#153559"/>
<path fill-rule="evenodd" clip-rule="evenodd" d="M5.96664 4.58546C6.13382 4.76935 6.41842 4.78291 6.60232 4.61573L9.03065 2.40815L11.459 4.61573C11.6429 4.78291 11.9275 4.76935 12.0947 4.58546C12.2618 4.40156 12.2483 4.11696 12.0644 3.94978L9.33335 1.46702C9.16171 1.31099 8.89958 1.31099 8.72794 1.46702L5.99691 3.94978C5.81301 4.11696 5.79946 4.40156 5.96664 4.58546Z" fill="#16243E"/>
<path fill-rule="evenodd" clip-rule="evenodd" d="M9.03203 11.25C8.7835 11.25 8.58203 11.0485 8.58203 10.8L8.58203 2.04828C8.58203 1.79975 8.7835 1.59828 9.03203 1.59828C9.28056 1.59828 9.48203 1.79975 9.48203 2.04828L9.48203 10.8C9.48203 11.0485 9.28056 11.25 9.03203 11.25Z" fill="#16243E"/>
</svg>
