<svg width="32" height="26" viewBox="0 0 32 26" fill="none" xmlns="http://www.w3.org/2000/svg">
<g clip-path="url(#clip0_126_4520)">
<path d="M8.78128 4.59171C8.87777 4.59171 8.95112 4.59171 9.02447 4.59171C13.6105 4.59171 18.1966 4.59171 22.7831 4.59171C25.2105 4.59171 27.6385 4.59171 30.0659 4.59171C30.6743 4.59171 31.2281 4.74381 31.6382 5.15439C32.1074 5.62388 32.0675 6.15887 31.8199 6.71716C31.048 8.45709 30.2899 10.2014 29.5278 11.9449C29.0045 13.1432 28.4822 14.3415 27.9634 15.5416C27.8152 15.8841 27.5331 16.0652 27.1378 16.114C27.0005 16.1311 26.8597 16.1281 26.7204 16.1281C24.4067 16.1303 22.0934 16.1325 19.7797 16.132C17.3681 16.1311 14.9569 16.1272 12.5452 16.125C12.4561 16.125 12.3675 16.1329 12.2336 16.1391C12.4158 16.7404 12.591 17.3203 12.7717 17.9172C12.9002 17.9172 13.0218 17.9172 13.1438 17.9172C18.0007 17.9172 22.8575 17.9181 27.7143 17.9164C28.1248 17.9164 28.5098 17.9876 28.8637 18.1805C29.4633 18.508 29.4904 19.1582 28.9218 19.5248C28.5733 19.7495 28.179 19.8242 27.761 19.8242C22.2574 19.8238 16.7537 19.822 11.2501 19.8202C11.2338 19.8202 11.2171 19.8181 11.2008 19.8202C11.0718 19.8374 11.0143 19.7886 10.9808 19.6739C10.6391 18.4993 10.2916 17.326 9.94502 16.1527C9.45078 14.4778 8.95752 12.8025 8.4613 11.1276C8.03203 9.67961 7.59785 8.23246 7.16907 6.78442C6.73193 5.30825 6.2938 3.83208 5.86749 2.35328C5.81236 2.16249 5.72473 2.09963 5.50419 2.09611C4.0692 2.07281 2.63421 2.03633 1.19922 2.00248C0.57354 1.98797 0.0620632 1.55717 0.00594359 1.00239C-0.0462378 0.491581 0.296387 0.102097 0.902381 0.0317618C1.24107 -0.00736238 1.58812 0.000110771 1.93124 0.00142956C3.3997 0.00670473 4.86817 0.0168155 6.33663 0.026047C7.00761 0.030443 7.45902 0.322336 7.6392 0.898648C7.95376 1.90489 8.25208 2.91552 8.55976 3.92352C8.62621 4.14156 8.70301 4.35652 8.78177 4.59171H8.78128ZM29.8857 6.49253H9.25091C9.2642 6.55803 9.26962 6.60858 9.28439 6.65694C9.6024 7.7001 9.915 8.74415 10.2419 9.78511C10.7095 11.2758 11.1895 12.7634 11.6577 14.2541C11.7044 14.4031 11.765 14.4642 11.9535 14.4638C14.4528 14.4567 16.9516 14.458 19.4509 14.458C21.7065 14.458 23.9616 14.458 26.2173 14.4629C26.3723 14.4629 26.454 14.4237 26.5043 14.2892C26.5791 14.0883 26.6785 13.8949 26.7647 13.6971C27.6198 11.7286 28.4748 9.76006 29.3289 7.79154C29.514 7.36513 29.6957 6.9374 29.8872 6.49209L29.8857 6.49253Z" fill="#16243E"/>
<path d="M14.6075 20.9971C16.1493 20.9879 17.4144 22.108 17.4179 23.4857C17.4213 24.8568 16.1532 25.9984 14.6257 26.0002C13.1045 26.0019 11.8217 24.8717 11.8128 23.5231C11.8039 22.1304 13.0469 21.0064 14.6075 20.9971ZM14.5986 24.4392C15.1987 24.444 15.6639 24.0457 15.6786 23.5134C15.6939 22.9854 15.211 22.5406 14.6198 22.537C14.0438 22.534 13.5599 22.9621 13.55 23.4839C13.5402 24.0044 14.0123 24.4343 14.5986 24.4392Z" fill="#CC132C"/>
<path d="M27.5795 23.5052C27.5835 24.8689 26.3311 25.9925 24.7996 25.9995C23.2539 26.007 21.9912 24.8732 21.9951 23.481C21.9996 22.0893 23.2475 20.9938 24.8267 20.9951C26.3439 20.9964 27.5756 22.1192 27.579 23.5048L27.5795 23.5052ZM24.7863 24.4398C25.381 24.4394 25.8521 24.0231 25.8521 23.4986C25.8521 22.9676 25.3662 22.5355 24.7726 22.5385C24.2207 22.5416 23.7171 22.979 23.7211 23.452C23.726 24.0213 24.1779 24.4402 24.7863 24.4398Z" fill="#CC132C"/>
<path d="M9.67413 11.0056H26.4426C27.2169 11.0056 27.9972 11.0307 28.7715 11.0056C28.7824 11.0056 28.7932 11.0056 28.804 11.0056C29.5641 11.0056 29.5656 9.95059 28.804 9.95059H12.0356C11.2612 9.95059 10.481 9.92553 9.70662 9.95059C9.69579 9.95059 9.68496 9.95059 9.67413 9.95059C8.91405 9.95059 8.91257 11.0056 9.67413 11.0056Z" fill="#16243E"/>
<path d="M16.8275 15.0583C16.8275 13.987 16.8275 12.9153 16.8275 11.844C16.8275 10.1283 16.8275 8.41206 16.8275 6.69631C16.8275 6.30463 16.8275 5.91295 16.8275 5.52127C16.8275 4.84253 15.646 4.84121 15.646 5.52127C15.646 6.59257 15.646 7.66431 15.646 8.73561C15.646 10.4514 15.646 12.1675 15.646 13.8833C15.646 14.275 15.646 14.6667 15.646 15.0583C15.646 15.7371 16.8275 15.7384 16.8275 15.0583Z" fill="#16243E"/>
<path d="M23.5696 15.0583C23.5696 13.987 23.5696 12.9153 23.5696 11.844C23.5696 10.1283 23.5696 8.41206 23.5696 6.69631C23.5696 6.30463 23.5696 5.91295 23.5696 5.52127C23.5696 4.84253 22.3882 4.84121 22.3882 5.52127C22.3882 6.59257 22.3882 7.66431 22.3882 8.73561C22.3882 10.4514 22.3882 12.1675 22.3882 13.8833C22.3882 14.275 22.3882 14.6667 22.3882 15.0583C22.3882 15.7371 23.5696 15.7384 23.5696 15.0583Z" fill="#16243E"/>
</g>
<defs>
<clipPath id="clip0_126_4520">
<rect width="32" height="26" fill="white"/>
</clipPath>
</defs>
</svg>
