<svg width="20" height="20" viewBox="0 0 20 20" fill="none" xmlns="http://www.w3.org/2000/svg">
<path fill-rule="evenodd" clip-rule="evenodd" d="M10 20C15.5228 20 20 15.5228 20 10C20 4.47715 15.5228 0 10 0C4.47715 0 0 4.47715 0 10C0 15.5228 4.47715 20 10 20Z" fill="#5BD083"/>
<path fill-rule="evenodd" clip-rule="evenodd" d="M14.6648 6.81204C14.7686 6.90307 14.779 7.06102 14.688 7.16483L8.98797 13.6648C8.94329 13.7158 8.87986 13.7464 8.81218 13.7497C8.74451 13.753 8.67839 13.7287 8.62897 13.6823L5.32897 10.5871C5.22827 10.4927 5.2232 10.3344 5.31766 10.2337C5.41211 10.133 5.57032 10.128 5.67103 10.2224L8.78248 13.1408L14.312 6.83517C14.4031 6.73136 14.561 6.721 14.6648 6.81204Z" fill="white" stroke="white" stroke-width="0.5" stroke-linecap="round" stroke-linejoin="round"/>
</svg>
