<svg width="20" height="18" viewBox="0 0 20 18" fill="none" xmlns="http://www.w3.org/2000/svg">
<path fill-rule="evenodd" clip-rule="evenodd" d="M16.7523 10.666L16.7634 10.6569C18.1886 9.47605 18.9969 7.64606 18.9746 5.87359C18.9528 4.13348 18.1365 2.47275 16.3064 1.49523C14.9937 0.794046 14.0068 0.925675 13.1778 1.3458C12.266 1.80788 11.4917 2.64729 10.7558 3.50229C10.2954 4.03715 9.46349 4.00516 9.04251 3.44655C8.49434 2.71918 7.55664 1.81722 6.46955 1.35931C5.44264 0.926748 4.2954 0.883094 3.07581 1.79946C1.41151 3.04996 0.929194 4.67497 1.00801 6.21537C1.08966 7.81125 1.77698 9.25144 2.35717 9.92759C2.87805 10.5346 4.30191 11.8427 5.95031 13.2913C7.31493 14.4906 8.78297 15.7426 9.90043 16.6826L16.7523 10.666ZM10.5897 2.18202C10.4943 2.28524 10.4013 2.38847 10.3107 2.49081C10.3107 2.49081 10.3107 2.49081 10.3107 2.49081C10.2031 2.6123 10.0989 2.73253 9.99783 2.84995C9.95568 2.89893 9.88001 2.8963 9.84112 2.84469C9.73645 2.70581 9.61869 2.56037 9.48892 2.41193C9.48892 2.41192 9.48893 2.41194 9.48892 2.41193C9.41838 2.33124 9.34425 2.24962 9.26678 2.16772C9.26658 2.16751 9.26697 2.16793 9.26678 2.16772C7.81132 0.629441 5.16426 -1.02056 2.47511 0.999985C-1.47567 3.96847 0.142717 8.88252 1.59827 10.5788C2.75193 11.9233 7.53865 16.015 9.85152 17.9464C9.88934 17.978 9.94298 17.976 9.98 17.9435L17.4014 11.4269C20.7283 8.67048 21.1442 2.94555 16.7775 0.613171C13.9729 -0.884866 12.0114 0.644516 10.5917 2.17979C10.591 2.18054 10.5903 2.18128 10.5897 2.18202Z" fill="#153559"/>
</svg>
