<svg width="20" height="20" viewBox="0 0 20 20" fill="none" xmlns="http://www.w3.org/2000/svg">
<path fill-rule="evenodd" clip-rule="evenodd" d="M7 4.48V6H13V4.48C13 3.87217 12.8298 2.95341 12.3588 2.22076C11.9225 1.54205 11.2238 1 10 1C8.77619 1 8.07749 1.54205 7.64118 2.22076C7.17019 2.95341 7 3.87217 7 4.48ZM6 4.48C6 2.98667 6.8 0 10 0C13.2 0 14 2.98667 14 4.48V7H6V4.48Z" fill="white"/>
<path fill-rule="evenodd" clip-rule="evenodd" d="M18.5943 19.3198C18.8532 18.9644 18.96 18.5206 18.8912 18.0864L17.2413 7.68664C17.0872 6.71519 16.2496 6 15.266 6H4.7315C3.7479 6 2.91031 6.71519 2.7562 7.68664L1.10638 18.0864C1.03749 18.5206 1.14429 18.9644 1.4032 19.3198C1.71459 19.7472 2.21154 20 2.74035 20H17.2572C17.786 20 18.2829 19.7472 18.5943 19.3198ZM1.4032 19.3198L2.21143 18.7309C2.10902 18.5904 2.06678 18.4148 2.09403 18.2431L3.74385 7.84332C3.8209 7.3576 4.2397 7 4.7315 7H15.266C15.7578 7 16.1766 7.35759 16.2537 7.84332L17.9035 18.2431C17.9308 18.4148 17.8885 18.5904 17.7861 18.7309C17.6629 18.9 17.4664 19 17.2572 19H2.74035C2.53117 19 2.33461 18.9 2.21144 18.7309L1.4032 19.3198Z" fill="white"/>
</svg>
