<svg width="18" height="20" viewBox="0 0 18 20" fill="none" xmlns="http://www.w3.org/2000/svg">
<path fill-rule="evenodd" clip-rule="evenodd" d="M5.91309 4.48V6H11.9131V4.48C11.9131 3.87217 11.7429 2.95341 11.2719 2.22076C10.8356 1.54205 10.1369 1 8.91309 1C7.68928 1 6.99057 1.54205 6.55426 2.22076C6.08327 2.95341 5.91309 3.87217 5.91309 4.48ZM4.91309 4.48C4.91309 2.98667 5.71309 0 8.91309 0C12.1131 0 12.9131 2.98667 12.9131 4.48V7H4.91309V4.48Z" fill="#BC363F"/>
<path fill-rule="evenodd" clip-rule="evenodd" d="M17.5084 19.3198C17.7673 18.9644 17.8741 18.5206 17.8052 18.0864L16.1554 7.68664C16.0013 6.71519 15.1637 6 14.1801 6H3.64556C2.66196 6 1.82437 6.71519 1.67026 7.68664L0.0204402 18.0864C-0.0484491 18.5206 0.0583529 18.9644 0.317261 19.3198C0.628654 19.7472 1.1256 20 1.65441 20H16.1713C16.7001 20 17.197 19.7472 17.5084 19.3198ZM0.317261 19.3198L1.1255 18.7309C1.02309 18.5904 0.98084 18.4148 1.00809 18.2431L2.65791 7.84332C2.73497 7.3576 3.15376 7 3.64556 7H14.1801C14.6719 7 15.0907 7.35759 15.1678 7.84332L16.8176 18.2431C16.8448 18.4148 16.8026 18.5904 16.7002 18.7309C16.577 18.9 16.3804 19 16.1713 19H1.65441C1.44524 19 1.24867 18.9 1.1255 18.7309L0.317261 19.3198Z" fill="#153559"/>
</svg>
