<svg width="20" height="20" viewBox="0 0 20 20" fill="none" xmlns="http://www.w3.org/2000/svg">
<path fill-rule="evenodd" clip-rule="evenodd" d="M19.3535 19.3536C19.1582 19.5488 18.8416 19.5488 18.6464 19.3536L0.646375 1.35355C0.451113 1.15829 0.451113 0.84171 0.646375 0.646447C0.841637 0.451185 1.15822 0.451186 1.35348 0.646448L19.3535 18.6464C19.5487 18.8417 19.5487 19.1583 19.3535 19.3536Z" fill="#153559"/>
<path fill-rule="evenodd" clip-rule="evenodd" d="M19.3536 0.646522C19.5488 0.841784 19.5488 1.15837 19.3536 1.35363L1.35356 19.3536C1.15829 19.5489 0.841711 19.5489 0.646449 19.3536C0.451187 19.1584 0.451187 18.8418 0.646449 18.6465L18.6464 0.646522C18.8417 0.45126 19.1583 0.45126 19.3536 0.646522Z" fill="#153559"/>
</svg>
