<svg width="14" height="14" viewBox="0 0 14 14" fill="none" xmlns="http://www.w3.org/2000/svg">
<path fill-rule="evenodd" clip-rule="evenodd" d="M9.10039 2.8V4.9H4.90039V2.8C4.90039 1.6402 5.84059 0.7 7.00039 0.7C8.16019 0.7 9.10039 1.6402 9.10039 2.8ZM4.20039 4.9V2.8C4.20039 1.2536 5.45399 0 7.00039 0C8.54679 0 9.80039 1.2536 9.80039 2.8V4.9H11.2004C11.9736 4.9 12.6004 5.5268 12.6004 6.3V12.6C12.6004 13.3732 11.9736 14 11.2004 14H2.80039C2.02719 14 1.40039 13.3732 1.40039 12.6V6.3C1.40039 5.5268 2.02719 4.9 2.80039 4.9H4.20039ZM9.80039 5.6H4.20039L2.80039 5.6C2.41379 5.6 2.10039 5.9134 2.10039 6.3V12.6C2.10039 12.9866 2.41379 13.3 2.80039 13.3H11.2004C11.587 13.3 11.9004 12.9866 11.9004 12.6V6.3C11.9004 5.9134 11.587 5.6 11.2004 5.6L9.80039 5.6ZM7.00039 9.8C7.38699 9.8 7.70039 9.4866 7.70039 9.1C7.70039 8.7134 7.38699 8.4 7.00039 8.4C6.61379 8.4 6.30039 8.7134 6.30039 9.1C6.30039 9.4866 6.61379 9.8 7.00039 9.8ZM7.35039 10.4559C7.95422 10.3005 8.40039 9.75234 8.40039 9.1C8.40039 8.3268 7.77359 7.7 7.00039 7.7C6.22719 7.7 5.60039 8.3268 5.60039 9.1C5.60039 9.75234 6.04656 10.3005 6.65039 10.4559V11.2C6.65039 11.3933 6.80709 11.55 7.00039 11.55C7.19369 11.55 7.35039 11.3933 7.35039 11.2V10.4559Z" fill="#3C3939"/>
</svg>
