<svg width="21" height="20" viewBox="0 0 21 20" fill="none" xmlns="http://www.w3.org/2000/svg">
<path d="M15.65 13.94C16.73 12.53 17.37 10.76 17.37 8.85C17.37 4.2 13.6 0.440002 8.96004 0.440002C4.32004 0.440002 0.540039 4.2 0.540039 8.84C0.540039 13.48 4.31004 17.25 8.95004 17.25C10.78 17.25 12.47 16.67 13.85 15.67L17.36 19.18C18.34 20.16 19.92 20.16 20.89 19.18L15.64 13.93L15.65 13.94ZM8.96004 14.76C5.70004 14.76 3.05004 12.11 3.05004 8.85C3.05004 5.59 5.70004 2.94 8.96004 2.94C12.22 2.94 14.87 5.59 14.87 8.85C14.87 12.11 12.22 14.76 8.96004 14.76Z" fill="#1D1D1B"/>
</svg>
