<svg width="16" height="16" viewBox="0 0 16 16" fill="none" xmlns="http://www.w3.org/2000/svg">
<path fill-rule="evenodd" clip-rule="evenodd" d="M4.28364 2.68274L4.28491 2.68151L4.29522 2.67159C4.30508 2.6622 4.32085 2.64741 4.34235 2.62799C4.38537 2.58913 4.45117 2.53185 4.53818 2.46225C4.71243 2.32284 4.97029 2.13517 5.29925 1.9472C5.95881 1.5703 6.89029 1.1999 8.00078 1.1999C9.11127 1.1999 10.0428 1.5703 10.7023 1.9472C11.0313 2.13517 11.2891 2.32284 11.4634 2.46225C11.5504 2.53186 11.6162 2.58914 11.6592 2.62799C11.6807 2.64741 11.6965 2.6622 11.7064 2.67159L11.7167 2.68152L11.7179 2.68274C11.718 2.68281 11.7181 2.68287 11.7181 2.68293C11.7181 2.68295 11.7182 2.68297 11.7182 2.68299C11.7182 2.68302 11.7182 2.68305 11.7183 2.68309C11.7183 2.68313 11.7184 2.68318 11.7184 2.68323C11.7268 2.6916 11.7356 2.6996 11.7447 2.70719C12.4252 3.27428 13.1471 4.56919 12.8451 6.60111C12.5508 8.58156 11.2783 11.2746 8.00759 14.624C6.64847 13.1646 4.90195 11.0294 3.87252 8.84912C3.32162 7.68233 2.99 6.53122 3.01197 5.48076C3.03362 4.44523 3.39793 3.49516 4.27109 2.69476C4.2753 2.69091 4.27942 2.68696 4.28346 2.68293M12.269 2.10278C13.1833 2.87282 13.973 4.45396 13.6364 6.7187C13.2993 8.98748 11.838 11.9284 8.28366 15.4827C8.2075 15.5589 8.10386 15.6011 7.99616 15.5999C7.88847 15.5986 7.78583 15.554 7.71147 15.4761C6.30216 13.9997 4.30676 11.6426 3.1491 9.19068C2.56999 7.96414 2.18661 6.68525 2.21214 5.46404C2.23794 4.22999 2.68217 3.06857 3.72521 2.1099L3.72602 2.10911L3.74349 2.09228C3.75824 2.07823 3.77918 2.05864 3.80612 2.03431C3.85997 1.98567 3.93793 1.91795 4.03842 1.83756C4.23916 1.67696 4.53129 1.46463 4.90233 1.25261C5.64276 0.829504 6.71127 0.399902 8.00078 0.399902C9.29029 0.399902 10.3588 0.829504 11.0992 1.25261C11.4703 1.46463 11.7624 1.67696 11.9632 1.83755C12.0637 1.91795 12.1416 1.98567 12.1955 2.03431C12.2224 2.05864 12.2433 2.07823 12.2581 2.09228L12.269 2.10278Z" fill="#3C3939"/>
<path fill-rule="evenodd" clip-rule="evenodd" d="M7.99961 7.19995C8.88326 7.19995 9.59961 6.48361 9.59961 5.59995C9.59961 4.7163 8.88326 3.99995 7.99961 3.99995C7.11595 3.99995 6.39961 4.7163 6.39961 5.59995C6.39961 6.48361 7.11595 7.19995 7.99961 7.19995ZM7.99961 7.99995C9.32509 7.99995 10.3996 6.92543 10.3996 5.59995C10.3996 4.27447 9.32509 3.19995 7.99961 3.19995C6.67413 3.19995 5.59961 4.27447 5.59961 5.59995C5.59961 6.92543 6.67413 7.99995 7.99961 7.99995Z" fill="#3C3939"/>
</svg>
