<svg width="16" height="16" viewBox="0 0 16 16" fill="none" xmlns="http://www.w3.org/2000/svg">
<path fill-rule="evenodd" clip-rule="evenodd" d="M5.60078 3.584V4.8H10.4008V3.584C10.4008 3.09773 10.2646 2.36273 9.88784 1.77661C9.53879 1.23364 8.97983 0.8 8.00078 0.8C7.02174 0.8 6.46277 1.23364 6.11372 1.77661C5.73693 2.36273 5.60078 3.09773 5.60078 3.584ZM4.80078 3.584C4.80078 2.38933 5.44078 0 8.00078 0C10.5608 0 11.2008 2.38933 11.2008 3.584V5.6H4.80078V3.584Z" fill="#3C3939"/>
<path fill-rule="evenodd" clip-rule="evenodd" d="M14.8759 15.4559C15.083 15.1716 15.1684 14.8166 15.1133 14.4692L13.7935 6.14936C13.6702 5.3722 13.0001 4.80005 12.2132 4.80005H3.78559C2.99871 4.80005 2.32864 5.3722 2.20535 6.14936L0.885493 14.4692C0.830381 14.8166 0.915823 15.1716 1.12295 15.4559C1.37206 15.7978 1.76962 16 2.19267 16H13.8061C14.2292 16 14.6267 15.7978 14.8759 15.4559ZM1.12295 15.4559L1.76954 14.9848C1.68761 14.8724 1.65381 14.7319 1.67561 14.5945L2.99547 6.27471C3.05711 5.88613 3.39215 5.60005 3.78559 5.60005H12.2132C12.6067 5.60005 12.9417 5.88612 13.0033 6.2747L14.3232 14.5945C14.345 14.7319 14.3112 14.8724 14.2293 14.9848C14.1307 15.1201 13.9735 15.2 13.8061 15.2H2.19267C2.02533 15.2 1.86808 15.1201 1.76954 14.9848L1.12295 15.4559Z" fill="#3C3939"/>
<path fill-rule="evenodd" clip-rule="evenodd" d="M10.9641 7.89931C10.798 7.75366 10.5453 7.77023 10.3996 7.93633L7.25236 11.5253L5.57404 9.95116C5.41291 9.80003 5.15977 9.80814 5.00864 9.96927C4.85751 10.1304 4.86562 10.3835 5.02675 10.5347L7.00675 12.3918C7.08582 12.466 7.1916 12.5049 7.29988 12.4996C7.40816 12.4943 7.50966 12.4453 7.58114 12.3638L11.0011 8.46378C11.1468 8.29769 11.1302 8.04496 10.9641 7.89931Z" fill="#3C3939"/>
</svg>
