<svg width="16" height="16" viewBox="0 0 16 16" fill="none" xmlns="http://www.w3.org/2000/svg">
<path fill-rule="evenodd" clip-rule="evenodd" d="M8 7.2C9.76731 7.2 11.2 5.76731 11.2 4C11.2 2.23269 9.76731 0.8 8 0.8C6.23269 0.8 4.8 2.23269 4.8 4C4.8 5.76731 6.23269 7.2 8 7.2ZM8 8C10.2091 8 12 6.20914 12 4C12 1.79086 10.2091 0 8 0C5.79086 0 4 1.79086 4 4C4 6.20914 5.79086 8 8 8Z" fill="#3C3939"/>
<path fill-rule="evenodd" clip-rule="evenodd" d="M1.63517 15.2H14.3649C14.2433 13.7559 13.7948 11.938 12.8111 10.4965C11.8375 9.06989 10.3393 7.99995 8.00004 7.99995C5.66076 7.99995 4.16261 9.06989 3.18902 10.4965C2.20525 11.938 1.75679 13.7559 1.63517 15.2ZM0.832354 15.2022C1.07302 12.1207 2.72481 7.19995 8.00004 7.19995C13.2753 7.19995 14.9271 12.1207 15.1677 15.2022C15.2021 15.6427 14.8419 16 14.4 16H1.60004C1.15821 16 0.797952 15.6427 0.832354 15.2022Z" fill="#3C3939"/>
</svg>
