<svg width="18" height="18" viewBox="0 0 18 18" fill="none" xmlns="http://www.w3.org/2000/svg">
<path fill-rule="evenodd" clip-rule="evenodd" d="M9.45117 0.899951C9.45117 1.14848 9.2497 1.34995 9.00117 1.34995L3.79394 1.34995C3.54027 1.34995 3.29314 1.43043 3.08811 1.57981C2.77844 1.80542 2.59529 2.16547 2.59529 2.54861L2.59529 15.4524C2.59529 15.8348 2.77812 16.1942 3.08723 16.4195C3.29254 16.569 3.54013 16.6494 3.79415 16.6489L9.00029 16.6387C9.24882 16.6382 9.45068 16.8393 9.45117 17.0878C9.45166 17.3363 9.25058 17.5382 9.00205 17.5387L3.79591 17.5489C3.35082 17.5498 2.917 17.409 2.55726 17.1469C2.01564 16.7523 1.69529 16.1225 1.69529 15.4524L1.69529 2.54861C1.69529 1.8778 2.01596 1.24741 2.55814 0.852396C2.91711 0.590859 3.3498 0.449951 3.79394 0.449951L9.00117 0.449951C9.2497 0.449951 9.45117 0.651423 9.45117 0.899951Z" fill="#3C3939"/>
<path fill-rule="evenodd" clip-rule="evenodd" d="M13.4149 5.96688C13.231 6.13406 13.2174 6.41866 13.3846 6.60256L15.5922 9.03089L13.3846 11.4592C13.2174 11.6431 13.231 11.9277 13.4149 12.0949C13.5988 12.2621 13.8834 12.2485 14.0506 12.0646L16.5333 9.33359C16.6893 9.16195 16.6893 8.89983 16.5333 8.72819L14.0506 5.99715C13.8834 5.81326 13.5988 5.79971 13.4149 5.96688Z" fill="#3C3939"/>
<path fill-rule="evenodd" clip-rule="evenodd" d="M6.75 9.03105C6.75 8.78253 6.95147 8.58105 7.2 8.58105L15.9517 8.58105C16.2003 8.58105 16.4017 8.78253 16.4017 9.03105C16.4017 9.27958 16.2003 9.48105 15.9517 9.48105L7.2 9.48105C6.95147 9.48105 6.75 9.27958 6.75 9.03105Z" fill="#3C3939"/>
</svg>
